<svg width="112" height="51" viewBox="0 0 112 51" fill="none" xmlns="http://www.w3.org/2000/svg">
<path d="M40.1894 0.507432H27.247V19.7239H31.1939V4.25055H40.1894V0.507432Z" fill="#002DFF"/>
<path d="M84.7864 19.7239V0.507432H80.8329V8.28363H71.4366V0.507432H67.4898V19.7239H71.4366V11.9477H80.8329V19.7239H84.7864Z" fill="#002DFF"/>
<path d="M111.132 20.1456L112 16.6595C107.566 15.3745 108.841 6.68226 109.603 1.46298L109.703 0.75785L106.11 0.25701L105.863 1.93746L106.35 3.85515L105.676 4.2835L105.622 4.05285C105.622 4.04626 105.482 3.41362 105.028 2.71508C103.499 0.9226 101.342 0 98.6503 0C95.9857 0 93.6817 0.98191 91.7985 2.91937C89.9085 4.86342 88.9535 7.28195 88.9535 10.1156C88.9535 12.923 89.9152 15.3415 91.7985 17.2922C93.6817 19.2428 95.9857 20.2313 98.6503 20.2313C101.589 20.2313 103.873 19.1374 105.449 16.9758C105.629 16.732 105.823 16.4355 106.056 16.0335L106.217 15.7501L106.35 16.0401C107.305 18.1818 108.921 19.5591 111.132 20.1456ZM103.752 14.7089C102.557 15.9214 101.034 16.5343 99.2313 16.5343C97.4282 16.5343 95.9055 15.9214 94.7035 14.7089C93.5081 13.4963 92.907 11.9543 92.907 10.1222C92.907 8.29022 93.5081 6.74157 94.7035 5.5356C95.8989 4.32304 97.4215 3.71017 99.2313 3.71017C101.041 3.71017 102.564 4.32304 103.752 5.5356C104.948 6.74816 105.556 8.29022 105.556 10.1222C105.556 11.9543 104.948 13.4963 103.752 14.7089Z" fill="#002DFF"/>
<path d="M22.1783 20.1456L23.0464 16.6595C18.6188 15.3745 19.8877 6.68885 20.649 1.46957L20.8159 1.48275L20.649 1.46298L20.7491 0.75785L17.1563 0.25701L17.0561 0.94896C17.0094 1.26528 16.9626 1.59478 16.9159 1.93087L17.3967 3.84856L16.7289 4.27691L16.6755 4.04626C16.6755 4.03967 16.5352 3.40703 16.0878 2.70849C14.5384 0.9226 12.3881 0 9.69674 0C7.03214 0 4.72816 0.98191 2.84491 2.91937C0.96166 4.86342 0 7.28195 0 10.1156C0 12.923 0.96166 15.3415 2.84491 17.2922C4.72816 19.2428 7.03214 20.2313 9.69674 20.2313C12.6351 20.2313 14.9258 19.1374 16.4951 16.9758C16.6755 16.732 16.8691 16.4355 17.1029 16.0335L17.2631 15.7501L17.3967 16.0401C18.3517 18.1818 19.9611 19.5591 22.1783 20.1456ZM14.7989 14.7089C13.6035 15.9214 12.0809 16.5343 10.2777 16.5343C8.47463 16.5343 6.952 15.9214 5.7566 14.7089C4.56121 13.4963 3.95349 11.9543 3.95349 10.1222C3.95349 8.29022 4.56121 6.74157 5.7566 5.5356C6.952 4.32304 8.47463 3.71017 10.2777 3.71017C12.0809 3.71017 13.6102 4.32304 14.7989 5.5356C15.9943 6.74816 16.602 8.29022 16.602 10.1222C16.602 11.9543 15.9943 13.4963 14.7989 14.7089Z" fill="#002DFF"/>
<path d="M56.7046 5.44993C57.92 6.57023 58.5344 7.98708 58.5344 9.66753C58.5344 11.348 57.92 12.7648 56.7046 13.8785C55.7429 14.755 54.5809 15.2954 53.2453 15.4733V19.7239H62.4812V16.2773L57.9534 17.2526L57.5193 16.587L57.7597 16.5409C57.9534 16.5014 62.4278 15.5458 62.4278 9.58186C62.4278 6.89973 61.4327 4.60641 59.4693 2.7678C57.4993 0.93578 55.055 0 52.1968 0C49.3652 0 46.921 0.93578 44.9442 2.77439C42.9675 4.60641 41.9658 6.89973 41.9658 9.58845C41.9658 15.5524 46.4402 16.5079 46.6338 16.5475L46.8742 16.5936L46.4402 17.2592L46.3266 17.2328L41.9057 16.2839V19.7305H51.1416V15.4799C49.806 15.2954 48.644 14.7616 47.6823 13.8851C46.4602 12.7648 45.8458 11.348 45.8458 9.67412C45.8458 8.00026 46.4602 6.57682 47.6823 5.45652C48.8977 4.3494 50.4137 3.78925 52.1901 3.78925C53.9732 3.78266 55.4891 4.34281 56.7046 5.44993Z" fill="#002DFF"/>
<path d="M21.2099 36.0012V34.8611C21.6908 34.927 22.0447 34.8084 22.2785 34.5184C22.5122 34.2285 22.6324 33.6617 22.6324 32.838V28.4952H27.7279V35.9946H26.479V29.6748H23.8812V32.8116C23.8812 33.4706 23.8078 34.0242 23.6675 34.4723C23.5273 34.9204 23.3269 35.2565 23.0665 35.4871C22.806 35.7112 22.5255 35.8628 22.225 35.9353C21.9245 36.0143 21.5839 36.0341 21.2099 36.0012Z" fill="#002DFF"/>
<path d="M33.4711 30.6435H34.6465V36.0012H33.4711V35.2301C33.0303 35.8364 32.3959 36.1396 31.5745 36.1396C30.8265 36.1396 30.1921 35.8694 29.6645 35.3224C29.137 34.7754 28.8698 34.1098 28.8698 33.3256C28.8698 32.5348 29.137 31.8626 29.6645 31.3223C30.1921 30.7819 30.8332 30.5051 31.5745 30.5051C32.4026 30.5051 33.0303 30.8082 33.4711 31.4079V30.6435ZM30.526 34.5448C30.8533 34.8677 31.2606 35.0324 31.7548 35.0324C32.249 35.0324 32.6564 34.8677 32.9836 34.5448C33.3108 34.2219 33.4711 33.8133 33.4711 33.319C33.4711 32.8248 33.3108 32.4162 32.9836 32.0933C32.6564 31.7704 32.249 31.6056 31.7548 31.6056C31.2606 31.6056 30.8533 31.7704 30.526 32.0933C30.1988 32.4162 30.0385 32.8248 30.0385 33.319C30.0385 33.8133 30.1988 34.2219 30.526 34.5448Z" fill="#002DFF"/>
<path d="M38.5265 36.1396C37.6917 36.1396 37.0172 35.876 36.4896 35.3422C35.9621 34.8084 35.7016 34.1296 35.7016 33.2993C35.7016 32.3898 35.8419 31.6913 36.1157 31.1971C36.3895 30.7028 36.9504 30.2481 37.7852 29.8395C37.9255 29.7736 38.1258 29.6814 38.3996 29.5627C38.6734 29.4375 38.8604 29.3519 38.9606 29.2991C39.0608 29.2464 39.1876 29.1673 39.3412 29.0619C39.4948 28.9565 39.6084 28.851 39.6751 28.7324C39.7486 28.6138 39.8087 28.4754 39.8488 28.3106L40.8038 28.8576C40.777 29.0158 40.7303 29.1607 40.6635 29.2925C40.5967 29.4243 40.5032 29.5496 40.383 29.6616C40.2628 29.7736 40.156 29.8659 40.0625 29.9384C39.969 30.0109 39.8221 30.0965 39.615 30.1954C39.408 30.2942 39.2477 30.3667 39.1542 30.4063C39.0541 30.4524 38.8738 30.5249 38.6066 30.6303C38.1258 30.8148 37.7785 31.0059 37.5582 31.2036C37.3378 31.4013 37.1842 31.6452 37.0974 31.9351C37.5314 31.4475 38.1191 31.2036 38.8671 31.2036C39.5015 31.2036 40.0625 31.4277 40.5366 31.8758C41.0108 32.3239 41.2512 32.9105 41.2512 33.6222C41.2512 34.3537 40.9974 34.9534 40.4966 35.4212C39.989 35.9023 39.3346 36.1396 38.5265 36.1396ZM38.5198 35.0588C38.9739 35.0588 39.3479 34.927 39.6418 34.6568C39.9289 34.3866 40.0758 34.0505 40.0758 33.6354C40.0758 33.2136 39.9356 32.8709 39.6484 32.5941C39.3613 32.3239 38.994 32.1856 38.5332 32.1856C38.1258 32.1856 37.7652 32.3108 37.4379 32.5678C37.1107 32.8248 36.9504 33.1609 36.9504 33.5826C36.9504 34.011 37.104 34.3668 37.4046 34.6436C37.7051 34.9204 38.0791 35.0588 38.5198 35.0588Z" fill="#002DFF"/>
<path d="M44.7305 36.1396C43.9358 36.1396 43.2547 35.8694 42.7004 35.329C42.1461 34.7886 41.8656 34.1164 41.8656 33.3256C41.8656 32.5348 42.1461 31.8626 42.7004 31.3223C43.2547 30.7819 43.9358 30.5051 44.7305 30.5051C45.5319 30.5051 46.2131 30.7753 46.7674 31.3223C47.3217 31.8626 47.5955 32.5348 47.5955 33.3256C47.5955 34.1164 47.3217 34.7886 46.7674 35.329C46.2131 35.8694 45.5319 36.1396 44.7305 36.1396ZM43.5218 34.5316C43.849 34.8545 44.2497 35.0127 44.7239 35.0127C45.2047 35.0127 45.6054 34.8545 45.9259 34.5316C46.2532 34.2087 46.4135 33.8067 46.4135 33.319C46.4135 32.8314 46.2532 32.4294 45.9259 32.1065C45.5987 31.7836 45.198 31.6254 44.7239 31.6254C44.243 31.6254 43.8423 31.7836 43.5218 32.1065C43.1946 32.4294 43.0343 32.8314 43.0343 33.319C43.0343 33.8067 43.2012 34.2087 43.5218 34.5316Z" fill="#002DFF"/>
<path d="M51.7293 30.5051C52.4772 30.5051 53.1117 30.7753 53.6393 31.3223C54.1668 31.8692 54.434 32.5348 54.434 33.319C54.434 34.1098 54.1668 34.782 53.6393 35.3224C53.1117 35.8628 52.4706 36.133 51.7293 36.133C50.9012 36.133 50.2734 35.8298 49.826 35.2301V38.1363H48.6506V30.6435H49.826V31.4145C50.2734 30.8082 50.9079 30.5051 51.7293 30.5051ZM50.3202 34.5448C50.6474 34.8677 51.0548 35.0324 51.549 35.0324C52.0432 35.0324 52.4505 34.8677 52.7778 34.5448C53.105 34.2219 53.2653 33.8133 53.2653 33.319C53.2653 32.8248 53.105 32.4162 52.7778 32.0933C52.4505 31.7704 52.0432 31.6056 51.549 31.6056C51.0548 31.6056 50.6474 31.7704 50.3202 32.0933C49.993 32.4162 49.8327 32.8248 49.8327 33.319C49.8327 33.8133 49.993 34.2219 50.3202 34.5448Z" fill="#002DFF"/>
<path d="M59.8032 30.6435H60.9786V36.0012H59.8032V35.2301C59.3625 35.8364 58.728 36.1396 57.9066 36.1396C57.1587 36.1396 56.5242 35.8694 55.9967 35.3224C55.4691 34.7754 55.202 34.1098 55.202 33.3256C55.202 32.5348 55.4691 31.8626 55.9967 31.3223C56.5242 30.7819 57.1653 30.5051 57.9066 30.5051C58.7347 30.5051 59.3625 30.8082 59.8032 31.4079V30.6435ZM56.8581 34.5448C57.1854 34.8677 57.5927 35.0324 58.0869 35.0324C58.5811 35.0324 58.9885 34.8677 59.3157 34.5448C59.643 34.2219 59.8032 33.8133 59.8032 33.319C59.8032 32.8248 59.643 32.4162 59.3157 32.0933C58.9885 31.7704 58.5811 31.6056 58.0869 31.6056C57.5927 31.6056 57.1854 31.7704 56.8581 32.0933C56.5309 32.4162 56.3706 32.8248 56.3706 33.319C56.3706 33.8133 56.5309 34.2219 56.8581 34.5448Z" fill="#002DFF"/>
<path d="M66.4881 30.6435V31.7572H64.7184V36.0012H63.543V31.7572H61.7599V30.6435H66.4881Z" fill="#002DFF"/>
<path d="M69.6269 36.1396C68.8321 36.1396 68.151 35.8694 67.5967 35.329C67.0424 34.7886 66.7619 34.1164 66.7619 33.3256C66.7619 32.5348 67.0424 31.8626 67.5967 31.3223C68.151 30.7819 68.8321 30.5051 69.6269 30.5051C70.4282 30.5051 71.1094 30.7753 71.6637 31.3223C72.218 31.8626 72.4918 32.5348 72.4918 33.3256C72.4918 34.1164 72.218 34.7886 71.6637 35.329C71.1094 35.8694 70.4282 36.1396 69.6269 36.1396ZM68.4248 34.5316C68.752 34.8545 69.1527 35.0127 69.6269 35.0127C70.1077 35.0127 70.5084 34.8545 70.8289 34.5316C71.1562 34.2087 71.3164 33.8067 71.3164 33.319C71.3164 32.8314 71.1562 32.4294 70.8289 32.1065C70.5017 31.7836 70.101 31.6254 69.6269 31.6254C69.146 31.6254 68.7453 31.7836 68.4248 32.1065C68.0975 32.4294 67.9373 32.8314 67.9373 33.319C67.9373 33.8067 68.0975 34.2087 68.4248 34.5316Z" fill="#002DFF"/>
<path d="M76.6323 30.5051C77.3802 30.5051 78.0147 30.7753 78.5422 31.3223C79.0698 31.8692 79.3369 32.5348 79.3369 33.319C79.3369 34.1098 79.0698 34.782 78.5422 35.3224C78.0147 35.8628 77.3736 36.133 76.6323 36.133C75.8042 36.133 75.1764 35.8298 74.729 35.2301V38.1363H73.5536V30.6435H74.729V31.4145C75.1697 30.8082 75.8042 30.5051 76.6323 30.5051ZM75.2165 34.5448C75.5437 34.8677 75.9511 35.0324 76.4453 35.0324C76.9395 35.0324 77.3468 34.8677 77.6741 34.5448C78.0013 34.2219 78.1616 33.8133 78.1616 33.319C78.1616 32.8248 78.0013 32.4162 77.6741 32.0933C77.3468 31.7704 76.9395 31.6056 76.4453 31.6056C75.9511 31.6056 75.5437 31.7704 75.2165 32.0933C74.8893 32.4162 74.729 32.8248 74.729 33.319C74.729 33.8133 74.8959 34.2219 75.2165 34.5448Z" fill="#002DFF"/>
<path d="M84.3322 30.6435H85.2338V36.0012H84.0851V32.5941L81.307 36.0012H80.4055V30.6435H81.5541V34.0373L84.3322 30.6435Z" fill="#002DFF"/>
<path d="M90.7901 36.0012H89.6414V34.2021H88.9869L87.6046 36.0012H86.2288L87.6981 34.0901C87.3241 33.9714 87.0169 33.754 86.7898 33.4442C86.5628 33.1345 86.4492 32.7918 86.4492 32.4162C86.4492 31.9219 86.6295 31.5002 86.9835 31.1575C87.3441 30.8082 87.8049 30.6369 88.3659 30.6369H90.7901V36.0012ZM88.4326 33.2004H89.6347V31.6913H88.4326C88.1922 31.6913 87.9919 31.7572 87.8383 31.8956C87.678 32.034 87.5979 32.2185 87.5979 32.4557C87.5979 32.6864 87.678 32.8643 87.8383 33.0027C87.9986 33.1345 88.1922 33.2004 88.4326 33.2004Z" fill="#002DFF"/>
<path d="M29.0301 41.3588V42.5384H26.8931V48.8583H25.6443V42.5384H23.4939V41.3588H29.0301Z" fill="#002DFF"/>
<path d="M29.8181 46.6704C29.905 47.079 30.1053 47.3887 30.4125 47.6061C30.7264 47.8236 31.1003 47.9291 31.5545 47.9291C32.1755 47.9291 32.643 47.7116 32.9569 47.2635L33.9252 47.8236C33.391 48.6012 32.5963 48.99 31.5478 48.99C30.6663 48.99 29.9517 48.7264 29.4108 48.1927C28.8698 47.6589 28.596 46.9867 28.596 46.1695C28.596 45.3721 28.8632 44.7 29.3974 44.1596C29.9317 43.6192 30.6195 43.349 31.461 43.349C32.2557 43.349 32.9101 43.6258 33.4177 44.1728C33.9252 44.7197 34.1857 45.3919 34.1857 46.1761C34.1857 46.2947 34.1723 46.4595 34.1389 46.6572H29.8181V46.6704ZM29.8115 45.728H33.0036C32.9235 45.2931 32.7432 44.9636 32.456 44.7395C32.1689 44.5154 31.8349 44.41 31.4543 44.41C31.0202 44.41 30.6596 44.5286 30.3657 44.7659C30.0719 45.0031 29.8916 45.3194 29.8115 45.728Z" fill="#002DFF"/>
<path d="M39.802 48.8583H38.4463L37.0974 47.0262L35.7417 48.8583H34.3727L36.4162 46.1036L34.4862 43.5006H35.8419L37.0907 45.1942L38.3395 43.5006H39.7085L37.7785 46.1168L39.802 48.8583Z" fill="#002DFF"/>
<path d="M44.2497 43.5006H45.4251V48.8583H44.2497V46.7231H41.7654V48.8583H40.59V43.5006H41.7654V45.6357H44.2497V43.5006Z" fill="#002DFF"/>
<path d="M49.3452 48.9966C48.5505 48.9966 47.8693 48.7265 47.315 48.1795C46.7607 47.6391 46.4802 46.9669 46.4802 46.1761C46.4802 45.3853 46.7607 44.7131 47.315 44.1728C47.8693 43.6324 48.5505 43.3622 49.3452 43.3622C50.1465 43.3622 50.8277 43.6324 51.382 44.1728C51.9363 44.7131 52.2101 45.3853 52.2101 46.1761C52.2101 46.9669 51.9363 47.6391 51.382 48.1795C50.8277 48.7265 50.1465 48.9966 49.3452 48.9966ZM48.1364 47.3887C48.4636 47.7116 48.8643 47.8698 49.3385 47.8698C49.8193 47.8698 50.22 47.7116 50.5406 47.3887C50.8678 47.0658 51.0281 46.6638 51.0281 46.1761C51.0281 45.6885 50.8678 45.2865 50.5406 44.9636C50.2133 44.6407 49.8126 44.4825 49.3385 44.4825C48.8576 44.4825 48.457 44.6407 48.1364 44.9636C47.8092 45.2865 47.6489 45.6885 47.6489 46.1761C47.6489 46.6638 47.8159 47.0658 48.1364 47.3887Z" fill="#002DFF"/>
<path d="M58.0736 48.8583H56.6711L54.4473 46.3804V48.8583H53.2719V43.5006H54.4473V45.8664L56.5509 43.5006H57.9868L55.596 46.1234L58.0736 48.8583Z" fill="#002DFF"/>
<path d="M61.9402 43.3622C62.6882 43.3622 63.3226 43.6324 63.8502 44.1793C64.3778 44.7263 64.6449 45.3919 64.6449 46.1761C64.6449 46.9669 64.3778 47.6391 63.8502 48.1795C63.3226 48.7199 62.6815 48.9966 61.9402 48.9966C61.1122 48.9966 60.4844 48.6935 60.037 48.0938V51H58.8616V43.5006H60.037V44.2716C60.4777 43.6653 61.1122 43.3622 61.9402 43.3622ZM60.5245 47.4085C60.8517 47.7314 61.2591 47.8961 61.7533 47.8961C62.2474 47.8961 62.6548 47.7314 62.982 47.4085C63.3093 47.0855 63.4696 46.677 63.4696 46.1827C63.4696 45.6885 63.3093 45.2799 62.982 44.957C62.6548 44.6341 62.2474 44.4693 61.7533 44.4693C61.2591 44.4693 60.8517 44.6341 60.5245 44.957C60.1972 45.2799 60.037 45.6885 60.037 46.1827C60.037 46.677 60.2039 47.079 60.5245 47.4085Z" fill="#002DFF"/>
<path d="M70.0075 43.5006H71.1829V48.8583H70.0075V48.0872C69.5667 48.6935 68.9323 48.9966 68.1109 48.9966C67.3629 48.9966 66.7285 48.7265 66.2009 48.1795C65.6733 47.6325 65.4062 46.9669 65.4062 46.1827C65.4062 45.3919 65.6733 44.7197 66.2009 44.1793C66.7285 43.639 67.3696 43.3688 68.1109 43.3688C68.939 43.3688 69.5667 43.6719 70.0075 44.2716V43.5006ZM67.0624 47.4085C67.3896 47.7314 67.797 47.8961 68.2912 47.8961C68.7854 47.8961 69.1928 47.7314 69.52 47.4085C69.8472 47.0855 70.0075 46.677 70.0075 46.1827C70.0075 45.6885 69.8472 45.2799 69.52 44.957C69.1928 44.6341 68.7854 44.4693 68.2912 44.4693C67.797 44.4693 67.3896 44.6341 67.0624 44.957C66.7352 45.2799 66.5749 45.6885 66.5749 46.1827C66.5749 46.677 66.7419 47.079 67.0624 47.4085Z" fill="#002DFF"/>
<path d="M76.6991 43.5006V44.6143H74.9293V48.8583H73.754V44.6143H71.9709V43.5006H76.6991Z" fill="#002DFF"/>
<path d="M81.4205 43.5006H82.3221V48.8583H81.1734V45.4512L78.3953 48.8583H77.4937V43.5006H78.6424V46.901L81.4205 43.5006Z" fill="#002DFF"/>
<path d="M87.6112 43.5006H88.5128V48.8583H87.3641V45.4512L84.586 48.8583H83.6844V43.5006H84.8331V46.901L87.6112 43.5006Z" fill="#002DFF"/>
</svg>
